0
SECTION
2
HEADER
0
ENDSEC
0
SECTION
2
TABLES
0
TABLE
2
LAYER
0
LAYER
2
LayerA
70
0
62
1
6
CONTINUOUS
0
LAYER
2
LayerB
70
0
62
2
6
CONTINUOUS
0
ENDTAB
0
TABLE
2
STYLE
0
STYLE
2
TextStyleA
70
0
40
0.0
41
1
50
0.0
71
0
42
500
3
malgun
4
malgun.ttf
0
ENDTAB
0
ENDSEC
0
SECTION
2
ENTITIES
0
TEXT
8
LayerA
62
1
10
0
20
0
40
500
1
TestA
72
0
7
TextStyleA
0
LINE
8
LayerB
10
0
20
0
30
0
11
50
21
50
31
0
0
LINE
8
LayerB
10
0
20
50
30
0
11
50
21
50
31
0
62
4
0
POLYLINE
8
LayerA
62
1
66
1
70
0
0
VERTEX
8
LayerA
10
1000
20
0
30
0
0
VERTEX
8
LayerA
10
995.1847266721969
20
98.0171403295606
30
0
0
VERTEX
8
LayerA
10
980.7852804032304
20
195.09032201612825
30
0
0
VERTEX
8
LayerA
10
956.9403357322088
20
290.28467725446234
30
0
0
VERTEX
8
LayerA
10
923.8795325112867
20
382.6834323650898
30
0
0
VERTEX
8
LayerA
10
881.9212643483551
20
471.39673682599766
30
0
0
VERTEX
8
LayerA
10
831.4696123025452
20
555.5702330196021
30
0
0
VERTEX
8
LayerA
10
773.0104533627369
20
634.3932841636455
30
0
0
VERTEX
8
LayerA
10
707.1067811865476
20
707.1067811865474
30
0
0
VERTEX
8
LayerA
10
634.3932841636455
20
773.0104533627369
30
0
0
VERTEX
8
LayerA
10
555.5702330196023
20
831.4696123025452
30
0
0
VERTEX
8
LayerA
10
471.39673682599783
20
881.921264348355
30
0
0
VERTEX
8
LayerA
10
382.68343236508986
20
923.8795325112867
30
0
0
VERTEX
8
LayerA
10
290.28467725446234
20
956.940335732209
30
0
0
VERTEX
8
LayerA
10
195.09032201612834
20
980.7852804032304
30
0
0
VERTEX
8
LayerA
10
98.01714032956077
20
995.1847266721968
30
0
0
VERTEX
8
LayerA
10
6.123233995736766e-14
20
1000
30
0
0
VERTEX
8
LayerA
10
-98.01714032956065
20
995.1847266721969
30
0
0
VERTEX
8
LayerA
10
-195.0903220161282
20
980.7852804032304
30
0
0
VERTEX
8
LayerA
10
-290.28467725446217
20
956.940335732209
30
0
0
VERTEX
8
LayerA
10
-382.68343236508974
20
923.8795325112867
30
0
0
VERTEX
8
LayerA
10
-471.3967368259977
20
881.9212643483551
30
0
0
VERTEX
8
LayerA
10
-555.5702330196019
20
831.4696123025454
30
0
0
VERTEX
8
LayerA
10
-634.3932841636454
20
773.010453362737
30
0
0
VERTEX
8
LayerA
10
-707.1067811865474
20
707.1067811865476
30
0
0
VERTEX
8
LayerA
10
-773.0104533627369
20
634.3932841636455
30
0
0
VERTEX
8
LayerA
10
-831.4696123025453
20
555.5702330196021
30
0
0
VERTEX
8
LayerA
10
-881.921264348355
20
471.3967368259979
30
0
0
VERTEX
8
LayerA
10
-923.8795325112867
20
382.6834323650899
30
0
0
VERTEX
8
LayerA
10
-956.9403357322088
20
290.2846772544624
30
0
0
VERTEX
8
LayerA
10
-980.7852804032304
20
195.0903220161286
30
0
0
VERTEX
8
LayerA
10
-995.1847266721968
20
98.01714032956083
30
0
0
VERTEX
8
LayerA
10
-1000
20
1.2246467991473532e-13
30
0
0
VERTEX
8
LayerA
10
-995.1847266721969
20
-98.01714032956059
30
0
0
VERTEX
8
LayerA
10
-980.7852804032304
20
-195.09032201612837
30
0
0
VERTEX
8
LayerA
10
-956.940335732209
20
-290.2846772544621
30
0
0
VERTEX
8
LayerA
10
-923.8795325112868
20
-382.6834323650897
30
0
0
VERTEX
8
LayerA
10
-881.9212643483551
20
-471.39673682599766
30
0
0
VERTEX
8
LayerA
10
-831.4696123025454
20
-555.5702330196019
30
0
0
VERTEX
8
LayerA
10
-773.010453362737
20
-634.3932841636453
30
0
0
VERTEX
8
LayerA
10
-707.1067811865477
20
-707.1067811865474
30
0
0
VERTEX
8
LayerA
10
-634.393284163646
20
-773.0104533627367
30
0
0
VERTEX
8
LayerA
10
-555.5702330196021
20
-831.4696123025452
30
0
0
VERTEX
8
LayerA
10
-471.3967368259979
20
-881.921264348355
30
0
0
VERTEX
8
LayerA
10
-382.6834323650903
20
-923.8795325112865
30
0
0
VERTEX
8
LayerA
10
-290.28467725446245
20
-956.9403357322088
30
0
0
VERTEX
8
LayerA
10
-195.09032201612865
20
-980.7852804032303
30
0
0
VERTEX
8
LayerA
10
-98.01714032956045
20
-995.1847266721969
30
0
0
VERTEX
8
LayerA
10
-1.8369701987210297e-13
20
-1000
30
0
0
VERTEX
8
LayerA
10
98.01714032956009
20
-995.1847266721969
30
0
0
VERTEX
8
LayerA
10
195.0903220161283
20
-980.7852804032304
30
0
0
VERTEX
8
LayerA
10
290.28467725446205
20
-956.940335732209
30
0
0
VERTEX
8
LayerA
10
382.68343236509
20
-923.8795325112866
30
0
0
VERTEX
8
LayerA
10
471.3967368259976
20
-881.9212643483551
30
0
0
VERTEX
8
LayerA
10
555.5702330196018
20
-831.4696123025454
30
0
0
VERTEX
8
LayerA
10
634.3932841636456
20
-773.0104533627368
30
0
0
VERTEX
8
LayerA
10
707.1067811865473
20
-707.1067811865477
30
0
0
VERTEX
8
LayerA
10
773.0104533627367
20
-634.393284163646
30
0
0
VERTEX
8
LayerA
10
831.4696123025452
20
-555.5702330196021
30
0
0
VERTEX
8
LayerA
10
881.9212643483548
20
-471.3967368259979
30
0
0
VERTEX
8
LayerA
10
923.8795325112865
20
-382.68343236509037
30
0
0
VERTEX
8
LayerA
10
956.9403357322088
20
-290.2846772544625
30
0
0
VERTEX
8
LayerA
10
980.7852804032303
20
-195.0903220161287
30
0
0
VERTEX
8
LayerA
10
995.1847266721969
20
-98.0171403295605
30
0
0
SEQEND
0
POLYLINE
8
LayerA
62
1
66
1
70
0
0
VERTEX
8
LayerA
10
1000
20
0
30
8000
0
VERTEX
8
LayerA
10
995.1847266721969
20
98.0171403295606
30
8000
0
VERTEX
8
LayerA
10
980.7852804032304
20
195.09032201612825
30
8000
0
VERTEX
8
LayerA
10
956.9403357322088
20
290.28467725446234
30
8000
0
VERTEX
8
LayerA
10
923.8795325112867
20
382.6834323650898
30
8000
0
VERTEX
8
LayerA
10
881.9212643483551
20
471.39673682599766
30
8000
0
VERTEX
8
LayerA
10
831.4696123025452
20
555.5702330196021
30
8000
0
VERTEX
8
LayerA
10
773.0104533627369
20
634.3932841636455
30
8000
0
VERTEX
8
LayerA
10
707.1067811865476
20
707.1067811865474
30
8000
0
VERTEX
8
LayerA
10
634.3932841636455
20
773.0104533627369
30
8000
0
VERTEX
8
LayerA
10
555.5702330196023
20
831.4696123025452
30
8000
0
VERTEX
8
LayerA
10
471.39673682599783
20
881.921264348355
30
8000
0
VERTEX
8
LayerA
10
382.68343236508986
20
923.8795325112867
30
8000
0
VERTEX
8
LayerA
10
290.28467725446234
20
956.940335732209
30
8000
0
VERTEX
8
LayerA
10
195.09032201612834
20
980.7852804032304
30
8000
0
VERTEX
8
LayerA
10
98.01714032956077
20
995.1847266721968
30
8000
0
VERTEX
8
LayerA
10
6.123233995736766e-14
20
1000
30
8000
0
VERTEX
8
LayerA
10
-98.01714032956065
20
995.1847266721969
30
8000
0
VERTEX
8
LayerA
10
-195.0903220161282
20
980.7852804032304
30
8000
0
VERTEX
8
LayerA
10
-290.28467725446217
20
956.940335732209
30
8000
0
VERTEX
8
LayerA
10
-382.68343236508974
20
923.8795325112867
30
8000
0
VERTEX
8
LayerA
10
-471.3967368259977
20
881.9212643483551
30
8000
0
VERTEX
8
LayerA
10
-555.5702330196019
20
831.4696123025454
30
8000
0
VERTEX
8
LayerA
10
-634.3932841636454
20
773.010453362737
30
8000
0
VERTEX
8
LayerA
10
-707.1067811865474
20
707.1067811865476
30
8000
0
VERTEX
8
LayerA
10
-773.0104533627369
20
634.3932841636455
30
8000
0
VERTEX
8
LayerA
10
-831.4696123025453
20
555.5702330196021
30
8000
0
VERTEX
8
LayerA
10
-881.921264348355
20
471.3967368259979
30
8000
0
VERTEX
8
LayerA
10
-923.8795325112867
20
382.6834323650899
30
8000
0
VERTEX
8
LayerA
10
-956.9403357322088
20
290.2846772544624
30
8000
0
VERTEX
8
LayerA
10
-980.7852804032304
20
195.0903220161286
30
8000
0
VERTEX
8
LayerA
10
-995.1847266721968
20
98.01714032956083
30
8000
0
VERTEX
8
LayerA
10
-1000
20
1.2246467991473532e-13
30
8000
0
VERTEX
8
LayerA
10
-995.1847266721969
20
-98.01714032956059
30
8000
0
VERTEX
8
LayerA
10
-980.7852804032304
20
-195.09032201612837
30
8000
0
VERTEX
8
LayerA
10
-956.940335732209
20
-290.2846772544621
30
8000
0
VERTEX
8
LayerA
10
-923.8795325112868
20
-382.6834323650897
30
8000
0
VERTEX
8
LayerA
10
-881.9212643483551
20
-471.39673682599766
30
8000
0
VERTEX
8
LayerA
10
-831.4696123025454
20
-555.5702330196019
30
8000
0
VERTEX
8
LayerA
10
-773.010453362737
20
-634.3932841636453
30
8000
0
VERTEX
8
LayerA
10
-707.1067811865477
20
-707.1067811865474
30
8000
0
VERTEX
8
LayerA
10
-634.393284163646
20
-773.0104533627367
30
8000
0
VERTEX
8
LayerA
10
-555.5702330196021
20
-831.4696123025452
30
8000
0
VERTEX
8
LayerA
10
-471.3967368259979
20
-881.921264348355
30
8000
0
VERTEX
8
LayerA
10
-382.6834323650903
20
-923.8795325112865
30
8000
0
VERTEX
8
LayerA
10
-290.28467725446245
20
-956.9403357322088
30
8000
0
VERTEX
8
LayerA
10
-195.09032201612865
20
-980.7852804032303
30
8000
0
VERTEX
8
LayerA
10
-98.01714032956045
20
-995.1847266721969
30
8000
0
VERTEX
8
LayerA
10
-1.8369701987210297e-13
20
-1000
30
8000
0
VERTEX
8
LayerA
10
98.01714032956009
20
-995.1847266721969
30
8000
0
VERTEX
8
LayerA
10
195.0903220161283
20
-980.7852804032304
30
8000
0
VERTEX
8
LayerA
10
290.28467725446205
20
-956.940335732209
30
8000
0
VERTEX
8
LayerA
10
382.68343236509
20
-923.8795325112866
30
8000
0
VERTEX
8
LayerA
10
471.3967368259976
20
-881.9212643483551
30
8000
0
VERTEX
8
LayerA
10
555.5702330196018
20
-831.4696123025454
30
8000
0
VERTEX
8
LayerA
10
634.3932841636456
20
-773.0104533627368
30
8000
0
VERTEX
8
LayerA
10
707.1067811865473
20
-707.1067811865477
30
8000
0
VERTEX
8
LayerA
10
773.0104533627367
20
-634.393284163646
30
8000
0
VERTEX
8
LayerA
10
831.4696123025452
20
-555.5702330196021
30
8000
0
VERTEX
8
LayerA
10
881.9212643483548
20
-471.3967368259979
30
8000
0
VERTEX
8
LayerA
10
923.8795325112865
20
-382.68343236509037
30
8000
0
VERTEX
8
LayerA
10
956.9403357322088
20
-290.2846772544625
30
8000
0
VERTEX
8
LayerA
10
980.7852804032303
20
-195.0903220161287
30
8000
0
VERTEX
8
LayerA
10
995.1847266721969
20
-98.0171403295605
30
8000
0
SEQEND
0
3DFACE
8
LayerA
62
1
10
1000
20
0
30
0
11
1000
21
0
31
8000
12
995.1847266721969
22
98.0171403295606
32
8000
13
995.1847266721969
23
98.0171403295606
33
0
0
3DFACE
8
LayerA
62
1
10
995.1847266721969
20
98.0171403295606
30
0
11
995.1847266721969
21
98.0171403295606
31
8000
12
980.7852804032304
22
195.09032201612825
32
8000
13
980.7852804032304
23
195.09032201612825
33
0
0
3DFACE
8
LayerA
62
1
10
980.7852804032304
20
195.09032201612825
30
0
11
980.7852804032304
21
195.09032201612825
31
8000
12
956.9403357322088
22
290.28467725446234
32
8000
13
956.9403357322088
23
290.28467725446234
33
0
0
3DFACE
8
LayerA
62
1
10
956.9403357322088
20
290.28467725446234
30
0
11
956.9403357322088
21
290.28467725446234
31
8000
12
923.8795325112867
22
382.6834323650898
32
8000
13
923.8795325112867
23
382.6834323650898
33
0
0
3DFACE
8
LayerA
62
1
10
923.8795325112867
20
382.6834323650898
30
0
11
923.8795325112867
21
382.6834323650898
31
8000
12
881.9212643483551
22
471.39673682599766
32
8000
13
881.9212643483551
23
471.39673682599766
33
0
0
3DFACE
8
LayerA
62
1
10
881.9212643483551
20
471.39673682599766
30
0
11
881.9212643483551
21
471.39673682599766
31
8000
12
831.4696123025452
22
555.5702330196021
32
8000
13
831.4696123025452
23
555.5702330196021
33
0
0
3DFACE
8
LayerA
62
1
10
831.4696123025452
20
555.5702330196021
30
0
11
831.4696123025452
21
555.5702330196021
31
8000
12
773.0104533627369
22
634.3932841636455
32
8000
13
773.0104533627369
23
634.3932841636455
33
0
0
3DFACE
8
LayerA
62
1
10
773.0104533627369
20
634.3932841636455
30
0
11
773.0104533627369
21
634.3932841636455
31
8000
12
707.1067811865476
22
707.1067811865474
32
8000
13
707.1067811865476
23
707.1067811865474
33
0
0
3DFACE
8
LayerA
62
1
10
707.1067811865476
20
707.1067811865474
30
0
11
707.1067811865476
21
707.1067811865474
31
8000
12
634.3932841636455
22
773.0104533627369
32
8000
13
634.3932841636455
23
773.0104533627369
33
0
0
3DFACE
8
LayerA
62
1
10
634.3932841636455
20
773.0104533627369
30
0
11
634.3932841636455
21
773.0104533627369
31
8000
12
555.5702330196023
22
831.4696123025452
32
8000
13
555.5702330196023
23
831.4696123025452
33
0
0
3DFACE
8
LayerA
62
1
10
555.5702330196023
20
831.4696123025452
30
0
11
555.5702330196023
21
831.4696123025452
31
8000
12
471.39673682599783
22
881.921264348355
32
8000
13
471.39673682599783
23
881.921264348355
33
0
0
3DFACE
8
LayerA
62
1
10
471.39673682599783
20
881.921264348355
30
0
11
471.39673682599783
21
881.921264348355
31
8000
12
382.68343236508986
22
923.8795325112867
32
8000
13
382.68343236508986
23
923.8795325112867
33
0
0
3DFACE
8
LayerA
62
1
10
382.68343236508986
20
923.8795325112867
30
0
11
382.68343236508986
21
923.8795325112867
31
8000
12
290.28467725446234
22
956.940335732209
32
8000
13
290.28467725446234
23
956.940335732209
33
0
0
3DFACE
8
LayerA
62
1
10
290.28467725446234
20
956.940335732209
30
0
11
290.28467725446234
21
956.940335732209
31
8000
12
195.09032201612834
22
980.7852804032304
32
8000
13
195.09032201612834
23
980.7852804032304
33
0
0
3DFACE
8
LayerA
62
1
10
195.09032201612834
20
980.7852804032304
30
0
11
195.09032201612834
21
980.7852804032304
31
8000
12
98.01714032956077
22
995.1847266721968
32
8000
13
98.01714032956077
23
995.1847266721968
33
0
0
3DFACE
8
LayerA
62
1
10
98.01714032956077
20
995.1847266721968
30
0
11
98.01714032956077
21
995.1847266721968
31
8000
12
6.123233995736766e-14
22
1000
32
8000
13
6.123233995736766e-14
23
1000
33
0
0
3DFACE
8
LayerA
62
1
10
6.123233995736766e-14
20
1000
30
0
11
6.123233995736766e-14
21
1000
31
8000
12
-98.01714032956065
22
995.1847266721969
32
8000
13
-98.01714032956065
23
995.1847266721969
33
0
0
3DFACE
8
LayerA
62
1
10
-98.01714032956065
20
995.1847266721969
30
0
11
-98.01714032956065
21
995.1847266721969
31
8000
12
-195.0903220161282
22
980.7852804032304
32
8000
13
-195.0903220161282
23
980.7852804032304
33
0
0
3DFACE
8
LayerA
62
1
10
-195.0903220161282
20
980.7852804032304
30
0
11
-195.0903220161282
21
980.7852804032304
31
8000
12
-290.28467725446217
22
956.940335732209
32
8000
13
-290.28467725446217
23
956.940335732209
33
0
0
3DFACE
8
LayerA
62
1
10
-290.28467725446217
20
956.940335732209
30
0
11
-290.28467725446217
21
956.940335732209
31
8000
12
-382.68343236508974
22
923.8795325112867
32
8000
13
-382.68343236508974
23
923.8795325112867
33
0
0
3DFACE
8
LayerA
62
1
10
-382.68343236508974
20
923.8795325112867
30
0
11
-382.68343236508974
21
923.8795325112867
31
8000
12
-471.3967368259977
22
881.9212643483551
32
8000
13
-471.3967368259977
23
881.9212643483551
33
0
0
3DFACE
8
LayerA
62
1
10
-471.3967368259977
20
881.9212643483551
30
0
11
-471.3967368259977
21
881.9212643483551
31
8000
12
-555.5702330196019
22
831.4696123025454
32
8000
13
-555.5702330196019
23
831.4696123025454
33
0
0
3DFACE
8
LayerA
62
1
10
-555.5702330196019
20
831.4696123025454
30
0
11
-555.5702330196019
21
831.4696123025454
31
8000
12
-634.3932841636454
22
773.010453362737
32
8000
13
-634.3932841636454
23
773.010453362737
33
0
0
3DFACE
8
LayerA
62
1
10
-634.3932841636454
20
773.010453362737
30
0
11
-634.3932841636454
21
773.010453362737
31
8000
12
-707.1067811865474
22
707.1067811865476
32
8000
13
-707.1067811865474
23
707.1067811865476
33
0
0
3DFACE
8
LayerA
62
1
10
-707.1067811865474
20
707.1067811865476
30
0
11
-707.1067811865474
21
707.1067811865476
31
8000
12
-773.0104533627369
22
634.3932841636455
32
8000
13
-773.0104533627369
23
634.3932841636455
33
0
0
3DFACE
8
LayerA
62
1
10
-773.0104533627369
20
634.3932841636455
30
0
11
-773.0104533627369
21
634.3932841636455
31
8000
12
-831.4696123025453
22
555.5702330196021
32
8000
13
-831.4696123025453
23
555.5702330196021
33
0
0
3DFACE
8
LayerA
62
1
10
-831.4696123025453
20
555.5702330196021
30
0
11
-831.4696123025453
21
555.5702330196021
31
8000
12
-881.921264348355
22
471.3967368259979
32
8000
13
-881.921264348355
23
471.3967368259979
33
0
0
3DFACE
8
LayerA
62
1
10
-881.921264348355
20
471.3967368259979
30
0
11
-881.921264348355
21
471.3967368259979
31
8000
12
-923.8795325112867
22
382.6834323650899
32
8000
13
-923.8795325112867
23
382.6834323650899
33
0
0
3DFACE
8
LayerA
62
1
10
-923.8795325112867
20
382.6834323650899
30
0
11
-923.8795325112867
21
382.6834323650899
31
8000
12
-956.9403357322088
22
290.2846772544624
32
8000
13
-956.9403357322088
23
290.2846772544624
33
0
0
3DFACE
8
LayerA
62
1
10
-956.9403357322088
20
290.2846772544624
30
0
11
-956.9403357322088
21
290.2846772544624
31
8000
12
-980.7852804032304
22
195.0903220161286
32
8000
13
-980.7852804032304
23
195.0903220161286
33
0
0
3DFACE
8
LayerA
62
1
10
-980.7852804032304
20
195.0903220161286
30
0
11
-980.7852804032304
21
195.0903220161286
31
8000
12
-995.1847266721968
22
98.01714032956083
32
8000
13
-995.1847266721968
23
98.01714032956083
33
0
0
3DFACE
8
LayerA
62
1
10
-995.1847266721968
20
98.01714032956083
30
0
11
-995.1847266721968
21
98.01714032956083
31
8000
12
-1000
22
1.2246467991473532e-13
32
8000
13
-1000
23
1.2246467991473532e-13
33
0
0
3DFACE
8
LayerA
62
1
10
-1000
20
1.2246467991473532e-13
30
0
11
-1000
21
1.2246467991473532e-13
31
8000
12
-995.1847266721969
22
-98.01714032956059
32
8000
13
-995.1847266721969
23
-98.01714032956059
33
0
0
3DFACE
8
LayerA
62
1
10
-995.1847266721969
20
-98.01714032956059
30
0
11
-995.1847266721969
21
-98.01714032956059
31
8000
12
-980.7852804032304
22
-195.09032201612837
32
8000
13
-980.7852804032304
23
-195.09032201612837
33
0
0
3DFACE
8
LayerA
62
1
10
-980.7852804032304
20
-195.09032201612837
30
0
11
-980.7852804032304
21
-195.09032201612837
31
8000
12
-956.940335732209
22
-290.2846772544621
32
8000
13
-956.940335732209
23
-290.2846772544621
33
0
0
3DFACE
8
LayerA
62
1
10
-956.940335732209
20
-290.2846772544621
30
0
11
-956.940335732209
21
-290.2846772544621
31
8000
12
-923.8795325112868
22
-382.6834323650897
32
8000
13
-923.8795325112868
23
-382.6834323650897
33
0
0
3DFACE
8
LayerA
62
1
10
-923.8795325112868
20
-382.6834323650897
30
0
11
-923.8795325112868
21
-382.6834323650897
31
8000
12
-881.9212643483551
22
-471.39673682599766
32
8000
13
-881.9212643483551
23
-471.39673682599766
33
0
0
3DFACE
8
LayerA
62
1
10
-881.9212643483551
20
-471.39673682599766
30
0
11
-881.9212643483551
21
-471.39673682599766
31
8000
12
-831.4696123025454
22
-555.5702330196019
32
8000
13
-831.4696123025454
23
-555.5702330196019
33
0
0
3DFACE
8
LayerA
62
1
10
-831.4696123025454
20
-555.5702330196019
30
0
11
-831.4696123025454
21
-555.5702330196019
31
8000
12
-773.010453362737
22
-634.3932841636453
32
8000
13
-773.010453362737
23
-634.3932841636453
33
0
0
3DFACE
8
LayerA
62
1
10
-773.010453362737
20
-634.3932841636453
30
0
11
-773.010453362737
21
-634.3932841636453
31
8000
12
-707.1067811865477
22
-707.1067811865474
32
8000
13
-707.1067811865477
23
-707.1067811865474
33
0
0
3DFACE
8
LayerA
62
1
10
-707.1067811865477
20
-707.1067811865474
30
0
11
-707.1067811865477
21
-707.1067811865474
31
8000
12
-634.393284163646
22
-773.0104533627367
32
8000
13
-634.393284163646
23
-773.0104533627367
33
0
0
3DFACE
8
LayerA
62
1
10
-634.393284163646
20
-773.0104533627367
30
0
11
-634.393284163646
21
-773.0104533627367
31
8000
12
-555.5702330196021
22
-831.4696123025452
32
8000
13
-555.5702330196021
23
-831.4696123025452
33
0
0
3DFACE
8
LayerA
62
1
10
-555.5702330196021
20
-831.4696123025452
30
0
11
-555.5702330196021
21
-831.4696123025452
31
8000
12
-471.3967368259979
22
-881.921264348355
32
8000
13
-471.3967368259979
23
-881.921264348355
33
0
0
3DFACE
8
LayerA
62
1
10
-471.3967368259979
20
-881.921264348355
30
0
11
-471.3967368259979
21
-881.921264348355
31
8000
12
-382.6834323650903
22
-923.8795325112865
32
8000
13
-382.6834323650903
23
-923.8795325112865
33
0
0
3DFACE
8
LayerA
62
1
10
-382.6834323650903
20
-923.8795325112865
30
0
11
-382.6834323650903
21
-923.8795325112865
31
8000
12
-290.28467725446245
22
-956.9403357322088
32
8000
13
-290.28467725446245
23
-956.9403357322088
33
0
0
3DFACE
8
LayerA
62
1
10
-290.28467725446245
20
-956.9403357322088
30
0
11
-290.28467725446245
21
-956.9403357322088
31
8000
12
-195.09032201612865
22
-980.7852804032303
32
8000
13
-195.09032201612865
23
-980.7852804032303
33
0
0
3DFACE
8
LayerA
62
1
10
-195.09032201612865
20
-980.7852804032303
30
0
11
-195.09032201612865
21
-980.7852804032303
31
8000
12
-98.01714032956045
22
-995.1847266721969
32
8000
13
-98.01714032956045
23
-995.1847266721969
33
0
0
3DFACE
8
LayerA
62
1
10
-98.01714032956045
20
-995.1847266721969
30
0
11
-98.01714032956045
21
-995.1847266721969
31
8000
12
-1.8369701987210297e-13
22
-1000
32
8000
13
-1.8369701987210297e-13
23
-1000
33
0
0
3DFACE
8
LayerA
62
1
10
-1.8369701987210297e-13
20
-1000
30
0
11
-1.8369701987210297e-13
21
-1000
31
8000
12
98.01714032956009
22
-995.1847266721969
32
8000
13
98.01714032956009
23
-995.1847266721969
33
0
0
3DFACE
8
LayerA
62
1
10
98.01714032956009
20
-995.1847266721969
30
0
11
98.01714032956009
21
-995.1847266721969
31
8000
12
195.0903220161283
22
-980.7852804032304
32
8000
13
195.0903220161283
23
-980.7852804032304
33
0
0
3DFACE
8
LayerA
62
1
10
195.0903220161283
20
-980.7852804032304
30
0
11
195.0903220161283
21
-980.7852804032304
31
8000
12
290.28467725446205
22
-956.940335732209
32
8000
13
290.28467725446205
23
-956.940335732209
33
0
0
3DFACE
8
LayerA
62
1
10
290.28467725446205
20
-956.940335732209
30
0
11
290.28467725446205
21
-956.940335732209
31
8000
12
382.68343236509
22
-923.8795325112866
32
8000
13
382.68343236509
23
-923.8795325112866
33
0
0
3DFACE
8
LayerA
62
1
10
382.68343236509
20
-923.8795325112866
30
0
11
382.68343236509
21
-923.8795325112866
31
8000
12
471.3967368259976
22
-881.9212643483551
32
8000
13
471.3967368259976
23
-881.9212643483551
33
0
0
3DFACE
8
LayerA
62
1
10
471.3967368259976
20
-881.9212643483551
30
0
11
471.3967368259976
21
-881.9212643483551
31
8000
12
555.5702330196018
22
-831.4696123025454
32
8000
13
555.5702330196018
23
-831.4696123025454
33
0
0
3DFACE
8
LayerA
62
1
10
555.5702330196018
20
-831.4696123025454
30
0
11
555.5702330196018
21
-831.4696123025454
31
8000
12
634.3932841636456
22
-773.0104533627368
32
8000
13
634.3932841636456
23
-773.0104533627368
33
0
0
3DFACE
8
LayerA
62
1
10
634.3932841636456
20
-773.0104533627368
30
0
11
634.3932841636456
21
-773.0104533627368
31
8000
12
707.1067811865473
22
-707.1067811865477
32
8000
13
707.1067811865473
23
-707.1067811865477
33
0
0
3DFACE
8
LayerA
62
1
10
707.1067811865473
20
-707.1067811865477
30
0
11
707.1067811865473
21
-707.1067811865477
31
8000
12
773.0104533627367
22
-634.393284163646
32
8000
13
773.0104533627367
23
-634.393284163646
33
0
0
3DFACE
8
LayerA
62
1
10
773.0104533627367
20
-634.393284163646
30
0
11
773.0104533627367
21
-634.393284163646
31
8000
12
831.4696123025452
22
-555.5702330196021
32
8000
13
831.4696123025452
23
-555.5702330196021
33
0
0
3DFACE
8
LayerA
62
1
10
831.4696123025452
20
-555.5702330196021
30
0
11
831.4696123025452
21
-555.5702330196021
31
8000
12
881.9212643483548
22
-471.3967368259979
32
8000
13
881.9212643483548
23
-471.3967368259979
33
0
0
3DFACE
8
LayerA
62
1
10
881.9212643483548
20
-471.3967368259979
30
0
11
881.9212643483548
21
-471.3967368259979
31
8000
12
923.8795325112865
22
-382.68343236509037
32
8000
13
923.8795325112865
23
-382.68343236509037
33
0
0
3DFACE
8
LayerA
62
1
10
923.8795325112865
20
-382.68343236509037
30
0
11
923.8795325112865
21
-382.68343236509037
31
8000
12
956.9403357322088
22
-290.2846772544625
32
8000
13
956.9403357322088
23
-290.2846772544625
33
0
0
3DFACE
8
LayerA
62
1
10
956.9403357322088
20
-290.2846772544625
30
0
11
956.9403357322088
21
-290.2846772544625
31
8000
12
980.7852804032303
22
-195.0903220161287
32
8000
13
980.7852804032303
23
-195.0903220161287
33
0
0
3DFACE
8
LayerA
62
1
10
980.7852804032303
20
-195.0903220161287
30
0
11
980.7852804032303
21
-195.0903220161287
31
8000
12
995.1847266721969
22
-98.0171403295605
32
8000
13
995.1847266721969
23
-98.0171403295605
33
0
0
3DFACE
8
LayerA
62
1
10
995.1847266721969
20
-98.0171403295605
30
0
11
995.1847266721969
21
-98.0171403295605
31
8000
12
1000
22
0
32
8000
13
1000
23
0
33
0
0
3DFACE
8
LayerA
62
1
10
0
20
0
30
0
11
1000
21
0
31
0
12
995.1847266721969
22
98.0171403295606
32
0
13
980.7852804032304
23
195.09032201612825
33
0
0
3DFACE
8
LayerA
62
1
10
0
20
0
30
0
11
1000
21
0
31
0
12
980.7852804032304
22
195.09032201612825
32
0
13
956.9403357322088
23
290.28467725446234
33
0
0
3DFACE
8
LayerA
62
1
10
0
20
0
30
0
11
1000
21
0
31
0
12
956.9403357322088
22
290.28467725446234
32
0
13
923.8795325112867
23
382.6834323650898
33
0
0
3DFACE
8
LayerA
62
1
10
0
20
0
30
0
11
1000
21
0
31
0
12
923.8795325112867
22
382.6834323650898
32
0
13
881.9212643483551
23
471.39673682599766
33
0
0
3DFACE
8
LayerA
62
1
10
0
20
0
30
0
11
1000
21
0
31
0
12
881.9212643483551
22
471.39673682599766
32
0
13
831.4696123025452
23
555.5702330196021
33
0
0
3DFACE
8
LayerA
62
1
10
0
20
0
30
0
11
1000
21
0
31
0
12
831.4696123025452
22
555.5702330196021
32
0
13
773.0104533627369
23
634.3932841636455
33
0
0
3DFACE
8
LayerA
62
1
10
0
20
0
30
0
11
1000
21
0
31
0
12
773.0104533627369
22
634.3932841636455
32
0
13
707.1067811865476
23
707.1067811865474
33
0
0
3DFACE
8
LayerA
62
1
10
0
20
0
30
0
11
1000
21
0
31
0
12
707.1067811865476
22
707.1067811865474
32
0
13
634.3932841636455
23
773.0104533627369
33
0
0
3DFACE
8
LayerA
62
1
10
0
20
0
30
0
11
1000
21
0
31
0
12
634.3932841636455
22
773.0104533627369
32
0
13
555.5702330196023
23
831.4696123025452
33
0
0
3DFACE
8
LayerA
62
1
10
0
20
0
30
0
11
1000
21
0
31
0
12
555.5702330196023
22
831.4696123025452
32
0
13
471.39673682599783
23
881.921264348355
33
0
0
3DFACE
8
LayerA
62
1
10
0
20
0
30
0
11
1000
21
0
31
0
12
471.39673682599783
22
881.921264348355
32
0
13
382.68343236508986
23
923.8795325112867
33
0
0
3DFACE
8
LayerA
62
1
10
0
20
0
30
0
11
1000
21
0
31
0
12
382.68343236508986
22
923.8795325112867
32
0
13
290.28467725446234
23
956.940335732209
33
0
0
3DFACE
8
LayerA
62
1
10
0
20
0
30
0
11
1000
21
0
31
0
12
290.28467725446234
22
956.940335732209
32
0
13
195.09032201612834
23
980.7852804032304
33
0
0
3DFACE
8
LayerA
62
1
10
0
20
0
30
0
11
1000
21
0
31
0
12
195.09032201612834
22
980.7852804032304
32
0
13
98.01714032956077
23
995.1847266721968
33
0
0
3DFACE
8
LayerA
62
1
10
0
20
0
30
0
11
1000
21
0
31
0
12
98.01714032956077
22
995.1847266721968
32
0
13
6.123233995736766e-14
23
1000
33
0
0
3DFACE
8
LayerA
62
1
10
0
20
0
30
0
11
1000
21
0
31
0
12
6.123233995736766e-14
22
1000
32
0
13
-98.01714032956065
23
995.1847266721969
33
0
0
3DFACE
8
LayerA
62
1
10
0
20
0
30
0
11
1000
21
0
31
0
12
-98.01714032956065
22
995.1847266721969
32
0
13
-195.0903220161282
23
980.7852804032304
33
0
0
3DFACE
8
LayerA
62
1
10
0
20
0
30
0
11
1000
21
0
31
0
12
-195.0903220161282
22
980.7852804032304
32
0
13
-290.28467725446217
23
956.940335732209
33
0
0
3DFACE
8
LayerA
62
1
10
0
20
0
30
0
11
1000
21
0
31
0
12
-290.28467725446217
22
956.940335732209
32
0
13
-382.68343236508974
23
923.8795325112867
33
0
0
3DFACE
8
LayerA
62
1
10
0
20
0
30
0
11
1000
21
0
31
0
12
-382.68343236508974
22
923.8795325112867
32
0
13
-471.3967368259977
23
881.9212643483551
33
0
0
3DFACE
8
LayerA
62
1
10
0
20
0
30
0
11
1000
21
0
31
0
12
-471.3967368259977
22
881.9212643483551
32
0
13
-555.5702330196019
23
831.4696123025454
33
0
0
3DFACE
8
LayerA
62
1
10
0
20
0
30
0
11
1000
21
0
31
0
12
-555.5702330196019
22
831.4696123025454
32
0
13
-634.3932841636454
23
773.010453362737
33
0
0
3DFACE
8
LayerA
62
1
10
0
20
0
30
0
11
1000
21
0
31
0
12
-634.3932841636454
22
773.010453362737
32
0
13
-707.1067811865474
23
707.1067811865476
33
0
0
3DFACE
8
LayerA
62
1
10
0
20
0
30
0
11
1000
21
0
31
0
12
-707.1067811865474
22
707.1067811865476
32
0
13
-773.0104533627369
23
634.3932841636455
33
0
0
3DFACE
8
LayerA
62
1
10
0
20
0
30
0
11
1000
21
0
31
0
12
-773.0104533627369
22
634.3932841636455
32
0
13
-831.4696123025453
23
555.5702330196021
33
0
0
3DFACE
8
LayerA
62
1
10
0
20
0
30
0
11
1000
21
0
31
0
12
-831.4696123025453
22
555.5702330196021
32
0
13
-881.921264348355
23
471.3967368259979
33
0
0
3DFACE
8
LayerA
62
1
10
0
20
0
30
0
11
1000
21
0
31
0
12
-881.921264348355
22
471.3967368259979
32
0
13
-923.8795325112867
23
382.6834323650899
33
0
0
3DFACE
8
LayerA
62
1
10
0
20
0
30
0
11
1000
21
0
31
0
12
-923.8795325112867
22
382.6834323650899
32
0
13
-956.9403357322088
23
290.2846772544624
33
0
0
3DFACE
8
LayerA
62
1
10
0
20
0
30
0
11
1000
21
0
31
0
12
-956.9403357322088
22
290.2846772544624
32
0
13
-980.7852804032304
23
195.0903220161286
33
0
0
3DFACE
8
LayerA
62
1
10
0
20
0
30
0
11
1000
21
0
31
0
12
-980.7852804032304
22
195.0903220161286
32
0
13
-995.1847266721968
23
98.01714032956083
33
0
0
3DFACE
8
LayerA
62
1
10
0
20
0
30
0
11
1000
21
0
31
0
12
-995.1847266721968
22
98.01714032956083
32
0
13
-1000
23
1.2246467991473532e-13
33
0
0
3DFACE
8
LayerA
62
1
10
0
20
0
30
0
11
1000
21
0
31
0
12
-1000
22
1.2246467991473532e-13
32
0
13
-995.1847266721969
23
-98.01714032956059
33
0
0
3DFACE
8
LayerA
62
1
10
0
20
0
30
0
11
1000
21
0
31
0
12
-995.1847266721969
22
-98.01714032956059
32
0
13
-980.7852804032304
23
-195.09032201612837
33
0
0
3DFACE
8
LayerA
62
1
10
0
20
0
30
0
11
1000
21
0
31
0
12
-980.7852804032304
22
-195.09032201612837
32
0
13
-956.940335732209
23
-290.2846772544621
33
0
0
3DFACE
8
LayerA
62
1
10
0
20
0
30
0
11
1000
21
0
31
0
12
-956.940335732209
22
-290.2846772544621
32
0
13
-923.8795325112868
23
-382.6834323650897
33
0
0
3DFACE
8
LayerA
62
1
10
0
20
0
30
0
11
1000
21
0
31
0
12
-923.8795325112868
22
-382.6834323650897
32
0
13
-881.9212643483551
23
-471.39673682599766
33
0
0
3DFACE
8
LayerA
62
1
10
0
20
0
30
0
11
1000
21
0
31
0
12
-881.9212643483551
22
-471.39673682599766
32
0
13
-831.4696123025454
23
-555.5702330196019
33
0
0
3DFACE
8
LayerA
62
1
10
0
20
0
30
0
11
1000
21
0
31
0
12
-831.4696123025454
22
-555.5702330196019
32
0
13
-773.010453362737
23
-634.3932841636453
33
0
0
3DFACE
8
LayerA
62
1
10
0
20
0
30
0
11
1000
21
0
31
0
12
-773.010453362737
22
-634.3932841636453
32
0
13
-707.1067811865477
23
-707.1067811865474
33
0
0
3DFACE
8
LayerA
62
1
10
0
20
0
30
0
11
1000
21
0
31
0
12
-707.1067811865477
22
-707.1067811865474
32
0
13
-634.393284163646
23
-773.0104533627367
33
0
0
3DFACE
8
LayerA
62
1
10
0
20
0
30
0
11
1000
21
0
31
0
12
-634.393284163646
22
-773.0104533627367
32
0
13
-555.5702330196021
23
-831.4696123025452
33
0
0
3DFACE
8
LayerA
62
1
10
0
20
0
30
0
11
1000
21
0
31
0
12
-555.5702330196021
22
-831.4696123025452
32
0
13
-471.3967368259979
23
-881.921264348355
33
0
0
3DFACE
8
LayerA
62
1
10
0
20
0
30
0
11
1000
21
0
31
0
12
-471.3967368259979
22
-881.921264348355
32
0
13
-382.6834323650903
23
-923.8795325112865
33
0
0
3DFACE
8
LayerA
62
1
10
0
20
0
30
0
11
1000
21
0
31
0
12
-382.6834323650903
22
-923.8795325112865
32
0
13
-290.28467725446245
23
-956.9403357322088
33
0
0
3DFACE
8
LayerA
62
1
10
0
20
0
30
0
11
1000
21
0
31
0
12
-290.28467725446245
22
-956.9403357322088
32
0
13
-195.09032201612865
23
-980.7852804032303
33
0
0
3DFACE
8
LayerA
62
1
10
0
20
0
30
0
11
1000
21
0
31
0
12
-195.09032201612865
22
-980.7852804032303
32
0
13
-98.01714032956045
23
-995.1847266721969
33
0
0
3DFACE
8
LayerA
62
1
10
0
20
0
30
0
11
1000
21
0
31
0
12
-98.01714032956045
22
-995.1847266721969
32
0
13
-1.8369701987210297e-13
23
-1000
33
0
0
3DFACE
8
LayerA
62
1
10
0
20
0
30
0
11
1000
21
0
31
0
12
-1.8369701987210297e-13
22
-1000
32
0
13
98.01714032956009
23
-995.1847266721969
33
0
0
3DFACE
8
LayerA
62
1
10
0
20
0
30
0
11
1000
21
0
31
0
12
98.01714032956009
22
-995.1847266721969
32
0
13
195.0903220161283
23
-980.7852804032304
33
0
0
3DFACE
8
LayerA
62
1
10
0
20
0
30
0
11
1000
21
0
31
0
12
195.0903220161283
22
-980.7852804032304
32
0
13
290.28467725446205
23
-956.940335732209
33
0
0
3DFACE
8
LayerA
62
1
10
0
20
0
30
0
11
1000
21
0
31
0
12
290.28467725446205
22
-956.940335732209
32
0
13
382.68343236509
23
-923.8795325112866
33
0
0
3DFACE
8
LayerA
62
1
10
0
20
0
30
0
11
1000
21
0
31
0
12
382.68343236509
22
-923.8795325112866
32
0
13
471.3967368259976
23
-881.9212643483551
33
0
0
3DFACE
8
LayerA
62
1
10
0
20
0
30
0
11
1000
21
0
31
0
12
471.3967368259976
22
-881.9212643483551
32
0
13
555.5702330196018
23
-831.4696123025454
33
0
0
3DFACE
8
LayerA
62
1
10
0
20
0
30
0
11
1000
21
0
31
0
12
555.5702330196018
22
-831.4696123025454
32
0
13
634.3932841636456
23
-773.0104533627368
33
0
0
3DFACE
8
LayerA
62
1
10
0
20
0
30
0
11
1000
21
0
31
0
12
634.3932841636456
22
-773.0104533627368
32
0
13
707.1067811865473
23
-707.1067811865477
33
0
0
3DFACE
8
LayerA
62
1
10
0
20
0
30
0
11
1000
21
0
31
0
12
707.1067811865473
22
-707.1067811865477
32
0
13
773.0104533627367
23
-634.393284163646
33
0
0
3DFACE
8
LayerA
62
1
10
0
20
0
30
0
11
1000
21
0
31
0
12
773.0104533627367
22
-634.393284163646
32
0
13
831.4696123025452
23
-555.5702330196021
33
0
0
3DFACE
8
LayerA
62
1
10
0
20
0
30
0
11
1000
21
0
31
0
12
831.4696123025452
22
-555.5702330196021
32
0
13
881.9212643483548
23
-471.3967368259979
33
0
0
3DFACE
8
LayerA
62
1
10
0
20
0
30
0
11
1000
21
0
31
0
12
881.9212643483548
22
-471.3967368259979
32
0
13
923.8795325112865
23
-382.68343236509037
33
0
0
3DFACE
8
LayerA
62
1
10
0
20
0
30
0
11
1000
21
0
31
0
12
923.8795325112865
22
-382.68343236509037
32
0
13
956.9403357322088
23
-290.2846772544625
33
0
0
3DFACE
8
LayerA
62
1
10
0
20
0
30
0
11
1000
21
0
31
0
12
956.9403357322088
22
-290.2846772544625
32
0
13
980.7852804032303
23
-195.0903220161287
33
0
0
3DFACE
8
LayerA
62
1
10
0
20
0
30
0
11
1000
21
0
31
0
12
980.7852804032303
22
-195.0903220161287
32
0
13
995.1847266721969
23
-98.0171403295605
33
0
0
3DFACE
8
LayerA
62
1
10
0
20
0
30
8000
11
1000
21
0
31
8000
12
995.1847266721969
22
98.0171403295606
32
8000
13
980.7852804032304
23
195.09032201612825
33
8000
0
3DFACE
8
LayerA
62
1
10
0
20
0
30
8000
11
1000
21
0
31
8000
12
980.7852804032304
22
195.09032201612825
32
8000
13
956.9403357322088
23
290.28467725446234
33
8000
0
3DFACE
8
LayerA
62
1
10
0
20
0
30
8000
11
1000
21
0
31
8000
12
956.9403357322088
22
290.28467725446234
32
8000
13
923.8795325112867
23
382.6834323650898
33
8000
0
3DFACE
8
LayerA
62
1
10
0
20
0
30
8000
11
1000
21
0
31
8000
12
923.8795325112867
22
382.6834323650898
32
8000
13
881.9212643483551
23
471.39673682599766
33
8000
0
3DFACE
8
LayerA
62
1
10
0
20
0
30
8000
11
1000
21
0
31
8000
12
881.9212643483551
22
471.39673682599766
32
8000
13
831.4696123025452
23
555.5702330196021
33
8000
0
3DFACE
8
LayerA
62
1
10
0
20
0
30
8000
11
1000
21
0
31
8000
12
831.4696123025452
22
555.5702330196021
32
8000
13
773.0104533627369
23
634.3932841636455
33
8000
0
3DFACE
8
LayerA
62
1
10
0
20
0
30
8000
11
1000
21
0
31
8000
12
773.0104533627369
22
634.3932841636455
32
8000
13
707.1067811865476
23
707.1067811865474
33
8000
0
3DFACE
8
LayerA
62
1
10
0
20
0
30
8000
11
1000
21
0
31
8000
12
707.1067811865476
22
707.1067811865474
32
8000
13
634.3932841636455
23
773.0104533627369
33
8000
0
3DFACE
8
LayerA
62
1
10
0
20
0
30
8000
11
1000
21
0
31
8000
12
634.3932841636455
22
773.0104533627369
32
8000
13
555.5702330196023
23
831.4696123025452
33
8000
0
3DFACE
8
LayerA
62
1
10
0
20
0
30
8000
11
1000
21
0
31
8000
12
555.5702330196023
22
831.4696123025452
32
8000
13
471.39673682599783
23
881.921264348355
33
8000
0
3DFACE
8
LayerA
62
1
10
0
20
0
30
8000
11
1000
21
0
31
8000
12
471.39673682599783
22
881.921264348355
32
8000
13
382.68343236508986
23
923.8795325112867
33
8000
0
3DFACE
8
LayerA
62
1
10
0
20
0
30
8000
11
1000
21
0
31
8000
12
382.68343236508986
22
923.8795325112867
32
8000
13
290.28467725446234
23
956.940335732209
33
8000
0
3DFACE
8
LayerA
62
1
10
0
20
0
30
8000
11
1000
21
0
31
8000
12
290.28467725446234
22
956.940335732209
32
8000
13
195.09032201612834
23
980.7852804032304
33
8000
0
3DFACE
8
LayerA
62
1
10
0
20
0
30
8000
11
1000
21
0
31
8000
12
195.09032201612834
22
980.7852804032304
32
8000
13
98.01714032956077
23
995.1847266721968
33
8000
0
3DFACE
8
LayerA
62
1
10
0
20
0
30
8000
11
1000
21
0
31
8000
12
98.01714032956077
22
995.1847266721968
32
8000
13
6.123233995736766e-14
23
1000
33
8000
0
3DFACE
8
LayerA
62
1
10
0
20
0
30
8000
11
1000
21
0
31
8000
12
6.123233995736766e-14
22
1000
32
8000
13
-98.01714032956065
23
995.1847266721969
33
8000
0
3DFACE
8
LayerA
62
1
10
0
20
0
30
8000
11
1000
21
0
31
8000
12
-98.01714032956065
22
995.1847266721969
32
8000
13
-195.0903220161282
23
980.7852804032304
33
8000
0
3DFACE
8
LayerA
62
1
10
0
20
0
30
8000
11
1000
21
0
31
8000
12
-195.0903220161282
22
980.7852804032304
32
8000
13
-290.28467725446217
23
956.940335732209
33
8000
0
3DFACE
8
LayerA
62
1
10
0
20
0
30
8000
11
1000
21
0
31
8000
12
-290.28467725446217
22
956.940335732209
32
8000
13
-382.68343236508974
23
923.8795325112867
33
8000
0
3DFACE
8
LayerA
62
1
10
0
20
0
30
8000
11
1000
21
0
31
8000
12
-382.68343236508974
22
923.8795325112867
32
8000
13
-471.3967368259977
23
881.9212643483551
33
8000
0
3DFACE
8
LayerA
62
1
10
0
20
0
30
8000
11
1000
21
0
31
8000
12
-471.3967368259977
22
881.9212643483551
32
8000
13
-555.5702330196019
23
831.4696123025454
33
8000
0
3DFACE
8
LayerA
62
1
10
0
20
0
30
8000
11
1000
21
0
31
8000
12
-555.5702330196019
22
831.4696123025454
32
8000
13
-634.3932841636454
23
773.010453362737
33
8000
0
3DFACE
8
LayerA
62
1
10
0
20
0
30
8000
11
1000
21
0
31
8000
12
-634.3932841636454
22
773.010453362737
32
8000
13
-707.1067811865474
23
707.1067811865476
33
8000
0
3DFACE
8
LayerA
62
1
10
0
20
0
30
8000
11
1000
21
0
31
8000
12
-707.1067811865474
22
707.1067811865476
32
8000
13
-773.0104533627369
23
634.3932841636455
33
8000
0
3DFACE
8
LayerA
62
1
10
0
20
0
30
8000
11
1000
21
0
31
8000
12
-773.0104533627369
22
634.3932841636455
32
8000
13
-831.4696123025453
23
555.5702330196021
33
8000
0
3DFACE
8
LayerA
62
1
10
0
20
0
30
8000
11
1000
21
0
31
8000
12
-831.4696123025453
22
555.5702330196021
32
8000
13
-881.921264348355
23
471.3967368259979
33
8000
0
3DFACE
8
LayerA
62
1
10
0
20
0
30
8000
11
1000
21
0
31
8000
12
-881.921264348355
22
471.3967368259979
32
8000
13
-923.8795325112867
23
382.6834323650899
33
8000
0
3DFACE
8
LayerA
62
1
10
0
20
0
30
8000
11
1000
21
0
31
8000
12
-923.8795325112867
22
382.6834323650899
32
8000
13
-956.9403357322088
23
290.2846772544624
33
8000
0
3DFACE
8
LayerA
62
1
10
0
20
0
30
8000
11
1000
21
0
31
8000
12
-956.9403357322088
22
290.2846772544624
32
8000
13
-980.7852804032304
23
195.0903220161286
33
8000
0
3DFACE
8
LayerA
62
1
10
0
20
0
30
8000
11
1000
21
0
31
8000
12
-980.7852804032304
22
195.0903220161286
32
8000
13
-995.1847266721968
23
98.01714032956083
33
8000
0
3DFACE
8
LayerA
62
1
10
0
20
0
30
8000
11
1000
21
0
31
8000
12
-995.1847266721968
22
98.01714032956083
32
8000
13
-1000
23
1.2246467991473532e-13
33
8000
0
3DFACE
8
LayerA
62
1
10
0
20
0
30
8000
11
1000
21
0
31
8000
12
-1000
22
1.2246467991473532e-13
32
8000
13
-995.1847266721969
23
-98.01714032956059
33
8000
0
3DFACE
8
LayerA
62
1
10
0
20
0
30
8000
11
1000
21
0
31
8000
12
-995.1847266721969
22
-98.01714032956059
32
8000
13
-980.7852804032304
23
-195.09032201612837
33
8000
0
3DFACE
8
LayerA
62
1
10
0
20
0
30
8000
11
1000
21
0
31
8000
12
-980.7852804032304
22
-195.09032201612837
32
8000
13
-956.940335732209
23
-290.2846772544621
33
8000
0
3DFACE
8
LayerA
62
1
10
0
20
0
30
8000
11
1000
21
0
31
8000
12
-956.940335732209
22
-290.2846772544621
32
8000
13
-923.8795325112868
23
-382.6834323650897
33
8000
0
3DFACE
8
LayerA
62
1
10
0
20
0
30
8000
11
1000
21
0
31
8000
12
-923.8795325112868
22
-382.6834323650897
32
8000
13
-881.9212643483551
23
-471.39673682599766
33
8000
0
3DFACE
8
LayerA
62
1
10
0
20
0
30
8000
11
1000
21
0
31
8000
12
-881.9212643483551
22
-471.39673682599766
32
8000
13
-831.4696123025454
23
-555.5702330196019
33
8000
0
3DFACE
8
LayerA
62
1
10
0
20
0
30
8000
11
1000
21
0
31
8000
12
-831.4696123025454
22
-555.5702330196019
32
8000
13
-773.010453362737
23
-634.3932841636453
33
8000
0
3DFACE
8
LayerA
62
1
10
0
20
0
30
8000
11
1000
21
0
31
8000
12
-773.010453362737
22
-634.3932841636453
32
8000
13
-707.1067811865477
23
-707.1067811865474
33
8000
0
3DFACE
8
LayerA
62
1
10
0
20
0
30
8000
11
1000
21
0
31
8000
12
-707.1067811865477
22
-707.1067811865474
32
8000
13
-634.393284163646
23
-773.0104533627367
33
8000
0
3DFACE
8
LayerA
62
1
10
0
20
0
30
8000
11
1000
21
0
31
8000
12
-634.393284163646
22
-773.0104533627367
32
8000
13
-555.5702330196021
23
-831.4696123025452
33
8000
0
3DFACE
8
LayerA
62
1
10
0
20
0
30
8000
11
1000
21
0
31
8000
12
-555.5702330196021
22
-831.4696123025452
32
8000
13
-471.3967368259979
23
-881.921264348355
33
8000
0
3DFACE
8
LayerA
62
1
10
0
20
0
30
8000
11
1000
21
0
31
8000
12
-471.3967368259979
22
-881.921264348355
32
8000
13
-382.6834323650903
23
-923.8795325112865
33
8000
0
3DFACE
8
LayerA
62
1
10
0
20
0
30
8000
11
1000
21
0
31
8000
12
-382.6834323650903
22
-923.8795325112865
32
8000
13
-290.28467725446245
23
-956.9403357322088
33
8000
0
3DFACE
8
LayerA
62
1
10
0
20
0
30
8000
11
1000
21
0
31
8000
12
-290.28467725446245
22
-956.9403357322088
32
8000
13
-195.09032201612865
23
-980.7852804032303
33
8000
0
3DFACE
8
LayerA
62
1
10
0
20
0
30
8000
11
1000
21
0
31
8000
12
-195.09032201612865
22
-980.7852804032303
32
8000
13
-98.01714032956045
23
-995.1847266721969
33
8000
0
3DFACE
8
LayerA
62
1
10
0
20
0
30
8000
11
1000
21
0
31
8000
12
-98.01714032956045
22
-995.1847266721969
32
8000
13
-1.8369701987210297e-13
23
-1000
33
8000
0
3DFACE
8
LayerA
62
1
10
0
20
0
30
8000
11
1000
21
0
31
8000
12
-1.8369701987210297e-13
22
-1000
32
8000
13
98.01714032956009
23
-995.1847266721969
33
8000
0
3DFACE
8
LayerA
62
1
10
0
20
0
30
8000
11
1000
21
0
31
8000
12
98.01714032956009
22
-995.1847266721969
32
8000
13
195.0903220161283
23
-980.7852804032304
33
8000
0
3DFACE
8
LayerA
62
1
10
0
20
0
30
8000
11
1000
21
0
31
8000
12
195.0903220161283
22
-980.7852804032304
32
8000
13
290.28467725446205
23
-956.940335732209
33
8000
0
3DFACE
8
LayerA
62
1
10
0
20
0
30
8000
11
1000
21
0
31
8000
12
290.28467725446205
22
-956.940335732209
32
8000
13
382.68343236509
23
-923.8795325112866
33
8000
0
3DFACE
8
LayerA
62
1
10
0
20
0
30
8000
11
1000
21
0
31
8000
12
382.68343236509
22
-923.8795325112866
32
8000
13
471.3967368259976
23
-881.9212643483551
33
8000
0
3DFACE
8
LayerA
62
1
10
0
20
0
30
8000
11
1000
21
0
31
8000
12
471.3967368259976
22
-881.9212643483551
32
8000
13
555.5702330196018
23
-831.4696123025454
33
8000
0
3DFACE
8
LayerA
62
1
10
0
20
0
30
8000
11
1000
21
0
31
8000
12
555.5702330196018
22
-831.4696123025454
32
8000
13
634.3932841636456
23
-773.0104533627368
33
8000
0
3DFACE
8
LayerA
62
1
10
0
20
0
30
8000
11
1000
21
0
31
8000
12
634.3932841636456
22
-773.0104533627368
32
8000
13
707.1067811865473
23
-707.1067811865477
33
8000
0
3DFACE
8
LayerA
62
1
10
0
20
0
30
8000
11
1000
21
0
31
8000
12
707.1067811865473
22
-707.1067811865477
32
8000
13
773.0104533627367
23
-634.393284163646
33
8000
0
3DFACE
8
LayerA
62
1
10
0
20
0
30
8000
11
1000
21
0
31
8000
12
773.0104533627367
22
-634.393284163646
32
8000
13
831.4696123025452
23
-555.5702330196021
33
8000
0
3DFACE
8
LayerA
62
1
10
0
20
0
30
8000
11
1000
21
0
31
8000
12
831.4696123025452
22
-555.5702330196021
32
8000
13
881.9212643483548
23
-471.3967368259979
33
8000
0
3DFACE
8
LayerA
62
1
10
0
20
0
30
8000
11
1000
21
0
31
8000
12
881.9212643483548
22
-471.3967368259979
32
8000
13
923.8795325112865
23
-382.68343236509037
33
8000
0
3DFACE
8
LayerA
62
1
10
0
20
0
30
8000
11
1000
21
0
31
8000
12
923.8795325112865
22
-382.68343236509037
32
8000
13
956.9403357322088
23
-290.2846772544625
33
8000
0
3DFACE
8
LayerA
62
1
10
0
20
0
30
8000
11
1000
21
0
31
8000
12
956.9403357322088
22
-290.2846772544625
32
8000
13
980.7852804032303
23
-195.0903220161287
33
8000
0
3DFACE
8
LayerA
62
1
10
0
20
0
30
8000
11
1000
21
0
31
8000
12
980.7852804032303
22
-195.0903220161287
32
8000
13
995.1847266721969
23
-98.0171403295605
33
8000
0
ENDSEC
0
EOF
